STARTFONT 2.1
COMMENT Exported by Fony v1.4.7
FONT 16X24TG
SIZE 24 96 96
FONTBOUNDINGBOX 16 23 0 -4
STARTPROPERTIES 6
COPYRIGHT "Tangar @ http://tangar.info for TomeNET @ http://tomenet.eu"
RESOLUTION_X 96
RESOLUTION_Y 96
FONT_ASCENT 20
FONT_DESCENT 4
DEFAULT_CHAR 31
ENDPROPERTIES
CHARS 256
STARTCHAR 000
ENCODING 0
SWIDTH 1152 0
DWIDTH 16 0
BBX 16 24 0 -4
BITMAP
8000
4001
4001
2002
1004
0000
0808
0410
0220
0220
0000
0140
0080
00C0
0000
0020
0220
0410
0808
0000
0004
2002
2001
4001
ENDCHAR
STARTCHAR 001
ENCODING 1
SWIDTH 1152 0
DWIDTH 16 0
BBX 13 1 2 -2
BITMAP
9248
ENDCHAR
STARTCHAR 002
ENCODING 2
SWIDTH 1152 0
DWIDTH 16 0
BBX 16 24 0 -4
BITMAP
FFFF
FFFF
FFFF
FFFF
FFFF
FFFF
FFFF
FFFF
FFFF
FFFF
FFFF
FFFF
FFFF
FFFF
FFFF
FFFF
FFFF
FFFF
FFFF
FFFF
FFFF
FFFF
FFFF
FFFF
ENDCHAR
STARTCHAR 003
ENCODING 3
SWIDTH 1152 0
DWIDTH 16 0
BBX 14 1 1 -1
BITMAP
DB6C
ENDCHAR
STARTCHAR 004
ENCODING 4
SWIDTH 1152 0
DWIDTH 16 0
BBX 4 4 6 -3
BITMAP
60
D0
F0
60
ENDCHAR
STARTCHAR 005
ENCODING 5
SWIDTH 1152 0
DWIDTH 16 0
BBX 14 3 1 -1
BITMAP
9248
0000
44A4
ENDCHAR
STARTCHAR 006
ENCODING 6
SWIDTH 1152 0
DWIDTH 16 0
BBX 15 6 0 -1
BITMAP
0410
0A28
0410
2082
0140
8888
ENDCHAR
STARTCHAR 007
ENCODING 7
SWIDTH 1152 0
DWIDTH 16 0
BBX 15 1 1 0
BITMAP
EEEE
ENDCHAR
STARTCHAR 008
ENCODING 8
SWIDTH 1152 0
DWIDTH 16 0
BBX 16 3 0 6
BITMAP
2222
5555
8888
ENDCHAR
STARTCHAR 009
ENCODING 9
SWIDTH 1152 0
DWIDTH 16 0
BBX 5 3 6 6
BITMAP
88
D8
70
ENDCHAR
STARTCHAR 010
ENCODING 10
SWIDTH 1152 0
DWIDTH 16 0
BBX 16 22 0 -4
BITMAP
FE1F
FF3F
FF3F
FE1F
0000
E1FF
F3FF
F3FF
F3FF
F3FF
E1FF
0000
FE1F
FF3F
FF3F
FE1F
0000
0000
E1FF
F3FF
F3FF
E1FF
ENDCHAR
STARTCHAR 011
ENCODING 11
SWIDTH 1152 0
DWIDTH 16 0
BBX 16 22 0 -4
BITMAP
FF3F
FF3F
FF3F
FF3F
0000
F3FF
F3FF
F3FF
F3FF
F3FF
F3FF
0000
FF3F
FF3F
FF3F
FF3F
0000
0000
F3FF
F3FF
F3FF
F3FF
ENDCHAR
STARTCHAR 012
ENCODING 12
SWIDTH 1152 0
DWIDTH 16 0
BBX 16 22 0 -4
BITMAP
FF3F
FF3F
FF2F
FF3F
0000
F3FF
F3FF
93FF
93FF
F3FF
F3FF
0000
FF3F
FF2F
FF2F
FF3F
0000
0000
F3FF
93FF
F3FF
F3FF
ENDCHAR
STARTCHAR 013
ENCODING 13
SWIDTH 1152 0
DWIDTH 16 0
BBX 16 24 0 -4
BITMAP
FFFF
7DEF
7DEF
3807
87F0
CC18
E00B
6C1B
6C1B
2FFB
2FFB
C3E0
E3EB
EC1B
6FFB
3FF7
37F7
83E0
F80F
FFFF
7DEF
38C6
BAD6
C739
ENDCHAR
STARTCHAR 014
ENCODING 14
SWIDTH 1152 0
DWIDTH 16 0
BBX 16 24 0 -4
BITMAP
0020
0030
0070
0078
08F8
19D8
1DBC
3DFC
3FFE
2E7E
6E7E
7DF9
F9D9
F3DF
F66F
E7A4
CFB6
8FB0
0FF8
0FF8
19F8
3FFC
7FFE
FFFF
ENDCHAR
STARTCHAR 015
ENCODING 15
SWIDTH 1152 0
DWIDTH 16 0
BBX 16 22 0 -4
BITMAP
0300
0780
0FC0
0E60
1E60
3FF0
3FF0
7FB0
7F10
FDF0
CDF8
C338
F7FC
3FFC
2FFE
0FFE
1FFE
1FFF
3FFF
7FFF
7FFF
7FFF
ENDCHAR
STARTCHAR 016
ENCODING 16
SWIDTH 1152 0
DWIDTH 16 0
BBX 16 24 0 -4
BITMAP
FFFF
FFFF
C26B
FFFF
C9A3
FFFF
E687
FFFF
DA1B
FFFF
E86B
FFFF
E1A3
FFFF
C683
FFFF
DA07
FFFF
E813
FFFF
E043
FFFF
FFFF
FFFF
ENDCHAR
STARTCHAR 017
ENCODING 17
SWIDTH 1152 0
DWIDTH 16 0
BBX 16 24 0 -4
BITMAP
FFFF
FFFF
C26B
C4D3
C9A3
D343
E687
CD0F
DA1B
F437
E86B
D0D3
E1A3
C343
C683
CD03
DA07
F40B
E813
D023
E043
C083
FFFF
FFFF
ENDCHAR
STARTCHAR 018
ENCODING 18
SWIDTH 1152 0
DWIDTH 16 0
BBX 16 24 0 -4
BITMAP
FFFF
FFFF
C303
C703
CB03
D303
E703
CF03
DB03
F703
EB03
D303
E303
C303
C703
CF03
DB03
F703
EB03
D303
E303
C303
FFFF
FFFF
ENDCHAR
STARTCHAR 019
ENCODING 19
SWIDTH 1152 0
DWIDTH 16 0
BBX 16 24 0 -4
BITMAP
FFFF
FFFF
C927
FFFF
E493
FFFF
D24B
FFFF
FFFF
C003
FFFF
C193
FFFF
DBB3
FFFF
CB9B
FFFF
CFA3
FFFF
C7E3
FFFF
C3C3
FFFF
FFFF
ENDCHAR
STARTCHAR 020
ENCODING 20
SWIDTH 1152 0
DWIDTH 16 0
BBX 16 24 0 -4
BITMAP
FFFF
FFFF
C927
D24B
E493
C927
D24B
FFFF
FFFF
C003
C103
C193
C9DB
DBB3
CDD3
CB9B
D9F3
CFA3
C183
C7E3
C7E3
C3C3
FFFF
FFFF
ENDCHAR
STARTCHAR 021
ENCODING 21
SWIDTH 1152 0
DWIDTH 16 0
BBX 16 24 0 -4
BITMAP
FFFF
FFFF
CB03
D303
E703
CB03
D303
FFFF
FFFF
C003
C103
C193
C9DB
DBB3
CDD3
CB9B
D9F3
CFA3
C183
C7E3
C7E3
C3C3
FFFF
FFFF
ENDCHAR
STARTCHAR 022
ENCODING 22
SWIDTH 1152 0
DWIDTH 16 0
BBX 16 24 0 -4
BITMAP
8000
4001
4001
2002
1004
0000
0808
0410
0220
0220
0000
0140
0080
00C0
0000
0020
0220
0410
0808
0000
0004
2002
2001
4001
ENDCHAR
STARTCHAR 023
ENCODING 23
SWIDTH 1152 0
DWIDTH 16 0
BBX 16 24 0 -4
BITMAP
8000
4001
4001
2002
1004
0000
0808
0410
0220
0220
0000
0140
0080
00C0
0000
0020
0220
0410
0808
0000
0004
2002
2001
4001
ENDCHAR
STARTCHAR 024
ENCODING 24
SWIDTH 1152 0
DWIDTH 16 0
BBX 16 24 0 -4
BITMAP
8000
4001
4001
2002
1004
0000
0808
0410
0220
0220
0000
0140
0080
00C0
0000
0020
0220
0410
0808
0000
0004
2002
2001
4001
ENDCHAR
STARTCHAR 025
ENCODING 25
SWIDTH 1152 0
DWIDTH 16 0
BBX 16 24 0 -4
BITMAP
8000
4001
4001
2002
1004
0000
0808
0410
0220
0220
0000
0140
0080
00C0
0000
0020
0220
0410
0808
0000
0004
2002
2001
4001
ENDCHAR
STARTCHAR 026
ENCODING 26
SWIDTH 1152 0
DWIDTH 16 0
BBX 16 24 0 -4
BITMAP
8000
4001
4001
2002
1004
0000
0808
0410
0220
0220
0000
0140
0080
00C0
0000
0020
0220
0410
0808
0000
0004
2002
2001
4001
ENDCHAR
STARTCHAR 027
ENCODING 27
SWIDTH 1152 0
DWIDTH 16 0
BBX 16 24 0 -4
BITMAP
8000
4001
4001
2002
1004
0000
0808
0410
0220
0220
0000
0140
0080
00C0
0000
0020
0220
0410
0808
0000
0004
2002
2001
4001
ENDCHAR
STARTCHAR 028
ENCODING 28
SWIDTH 1152 0
DWIDTH 16 0
BBX 16 24 0 -4
BITMAP
8000
4001
4001
2002
1004
0000
0808
0410
0220
0220
0000
0140
0080
00C0
0000
0020
0220
0410
0808
0000
0004
2002
2001
4001
ENDCHAR
STARTCHAR 029
ENCODING 29
SWIDTH 1152 0
DWIDTH 16 0
BBX 16 24 0 -4
BITMAP
8000
4001
4001
2002
1004
0000
0808
0410
0220
0220
0000
0140
0080
00C0
0000
0020
0220
0410
0808
0000
0004
2002
2001
4001
ENDCHAR
STARTCHAR 030
ENCODING 30
SWIDTH 1152 0
DWIDTH 16 0
BBX 16 24 0 -4
BITMAP
8000
4001
4001
2002
1004
0000
0808
0410
0220
0220
0000
0140
0080
00C0
0000
0020
0220
0410
0808
0000
0004
2002
2001
4001
ENDCHAR
STARTCHAR 031
ENCODING 31
SWIDTH 1152 0
DWIDTH 16 0
BBX 16 24 0 -4
BITMAP
8000
4001
4001
2002
1004
0000
0808
0410
0220
0220
0000
0140
0080
00C0
0000
0020
0220
0410
0808
0000
0004
2002
2001
4001
ENDCHAR
STARTCHAR 032
ENCODING 32
SWIDTH 1152 0
DWIDTH 16 0
BBX 0 0 0 0
BITMAP
ENDCHAR
STARTCHAR 033
ENCODING 33
SWIDTH 1152 0
DWIDTH 16 0
BBX 5 18 6 -1
BITMAP
70
70
78
F8
C8
C8
F8
F8
F8
F8
78
78
30
00
00
70
70
70
ENDCHAR
STARTCHAR 034
ENCODING 34
SWIDTH 1152 0
DWIDTH 16 0
BBX 8 5 5 10
BITMAP
E7
E7
E7
C3
C3
ENDCHAR
STARTCHAR 035
ENCODING 35
SWIDTH 1152 0
DWIDTH 16 0
BBX 11 11 3 2
BITMAP
3180
3180
FFE0
FFE0
3180
3180
3180
FFE0
FFE0
3180
3180
ENDCHAR
STARTCHAR 036
ENCODING 36
SWIDTH 1152 0
DWIDTH 16 0
BBX 11 22 3 -4
BITMAP
0100
0300
0300
1FC0
3FE0
7660
6620
6620
7600
7E00
1F80
0FC0
0EE0
0E60
8E60
CE60
7FC0
7FC0
3F80
0C00
0C00
0800
ENDCHAR
STARTCHAR 037
ENCODING 37
SWIDTH 1152 0
DWIDTH 16 0
BBX 14 16 2 0
BITMAP
0020
3060
7860
C8C0
C8C0
C980
7980
0300
0330
0678
06CC
0CCC
0CCC
1878
3800
3000
ENDCHAR
STARTCHAR 038
ENCODING 38
SWIDTH 1152 0
DWIDTH 16 0
BBX 12 15 3 0
BITMAP
0F00
1F80
30C0
31C0
3180
1300
1E00
3E00
7730
C3B0
C1E0
C1C0
E0E0
7FB0
3E30
ENDCHAR
STARTCHAR 039
ENCODING 39
SWIDTH 1152 0
DWIDTH 16 0
BBX 4 8 6 7
BITMAP
70
70
70
70
60
60
40
80
ENDCHAR
STARTCHAR 040
ENCODING 40
SWIDTH 1152 0
DWIDTH 16 0
BBX 5 19 7 -2
BITMAP
08
10
30
20
60
E0
E0
C0
C0
C0
C0
C0
E0
E0
60
20
30
10
08
ENDCHAR
STARTCHAR 041
ENCODING 41
SWIDTH 1152 0
DWIDTH 16 0
BBX 5 19 5 -2
BITMAP
80
40
60
20
30
38
38
18
18
18
18
18
38
38
30
20
60
40
80
ENDCHAR
STARTCHAR 042
ENCODING 42
SWIDTH 1152 0
DWIDTH 16 0
BBX 10 13 3 1
BITMAP
0400
0C00
CCC0
6DC0
3D80
1F00
FFC0
FFC0
3F00
7D80
EDC0
CCC0
0800
ENDCHAR
STARTCHAR 043
ENCODING 43
SWIDTH 1152 0
DWIDTH 16 0
BBX 13 13 2 1
BITMAP
0700
0700
0700
0700
0700
FFF8
FFF8
FFF8
0700
0700
0700
0700
0700
ENDCHAR
STARTCHAR 044
ENCODING 44
SWIDTH 1152 0
DWIDTH 16 0
BBX 7 8 4 -3
BITMAP
1C
3E
3E
3E
1C
18
30
E0
ENDCHAR
STARTCHAR 045
ENCODING 45
SWIDTH 1152 0
DWIDTH 16 0
BBX 12 3 3 6
BITMAP
FFF0
FFF0
FFF0
ENDCHAR
STARTCHAR 046
ENCODING 46
SWIDTH 1152 0
DWIDTH 16 0
BBX 3 3 7 6
BITMAP
E0
E0
E0
ENDCHAR
STARTCHAR 047
ENCODING 47
SWIDTH 1152 0
DWIDTH 16 0
BBX 9 16 4 0
BITMAP
0180
0380
0380
0300
0600
0600
0C00
1C00
1C00
1800
3000
7000
6000
E000
C000
C000
ENDCHAR
STARTCHAR 048
ENCODING 48
SWIDTH 1152 0
DWIDTH 16 0
BBX 9 16 4 0
BITMAP
0600
1F00
1F80
7B80
7180
E180
E180
E380
E380
E380
C380
C700
C600
EE00
FC00
7800
ENDCHAR
STARTCHAR 049
ENCODING 49
SWIDTH 1152 0
DWIDTH 16 0
BBX 7 16 5 0
BITMAP
04
0C
1C
3C
7C
FC
18
18
18
38
38
38
38
38
7C
FE
ENDCHAR
STARTCHAR 050
ENCODING 50
SWIDTH 1152 0
DWIDTH 16 0
BBX 10 16 3 0
BITMAP
0FC0
1FC0
3CC0
70C0
60C0
60C0
01C0
01C0
0380
0700
0E00
1C00
3800
70C0
FFC0
FFC0
ENDCHAR
STARTCHAR 051
ENCODING 51
SWIDTH 1152 0
DWIDTH 16 0
BBX 10 16 3 0
BITMAP
0F00
0F80
1FC0
31C0
21C0
01C0
0180
0F00
0F80
03C0
00C0
80C0
C1C0
E3C0
7F80
3E00
ENDCHAR
STARTCHAR 052
ENCODING 52
SWIDTH 1152 0
DWIDTH 16 0
BBX 9 16 4 0
BITMAP
2000
2000
6180
6380
6380
E300
E300
FF00
FF00
0300
0600
0600
0600
0600
0C00
0C00
ENDCHAR
STARTCHAR 053
ENCODING 53
SWIDTH 1152 0
DWIDTH 16 0
BBX 12 15 2 0
BITMAP
07E0
07F0
0C00
1800
1800
1E00
3F80
01C0
00C0
00C0
80C0
C0C0
7180
3F00
0E00
ENDCHAR
STARTCHAR 054
ENCODING 54
SWIDTH 1152 0
DWIDTH 16 0
BBX 9 15 4 0
BITMAP
1E00
3F00
6180
E080
C000
C000
DE00
FF00
E380
C180
C180
C380
E300
7E00
3C00
ENDCHAR
STARTCHAR 055
ENCODING 55
SWIDTH 1152 0
DWIDTH 16 0
BBX 11 15 3 0
BITMAP
7FE0
7FC0
C1C0
81C0
0180
0180
0700
0600
0E00
0E00
0C00
1C00
1C00
3800
3800
ENDCHAR
STARTCHAR 056
ENCODING 56
SWIDTH 1152 0
DWIDTH 16 0
BBX 9 16 4 0
BITMAP
1E00
1F00
3F80
6380
6380
6380
7700
3C00
7C00
FE00
C300
8300
8300
C700
FC00
7800
ENDCHAR
STARTCHAR 057
ENCODING 57
SWIDTH 1152 0
DWIDTH 16 0
BBX 9 15 4 0
BITMAP
0F00
1F80
7380
7180
6180
6180
7F80
3F80
1F80
0300
0700
0600
0E00
FC00
F000
ENDCHAR
STARTCHAR 058
ENCODING 58
SWIDTH 1152 0
DWIDTH 16 0
BBX 4 10 7 -1
BITMAP
E0
F0
F0
60
00
00
60
F0
F0
E0
ENDCHAR
STARTCHAR 059
ENCODING 59
SWIDTH 1152 0
DWIDTH 16 0
BBX 5 13 6 -3
BITMAP
70
78
78
30
00
00
30
78
78
30
70
60
C0
ENDCHAR
STARTCHAR 060
ENCODING 60
SWIDTH 1152 0
DWIDTH 16 0
BBX 16 21 0 -3
BITMAP
0007
0007
0037
0037
0037
0337
0337
1337
1337
9337
9337
9337
1337
1337
0337
0337
0037
0037
0037
0007
0007
ENDCHAR
STARTCHAR 061
ENCODING 61
SWIDTH 1152 0
DWIDTH 16 0
BBX 12 7 3 3
BITMAP
FFF0
FFF0
0000
0000
0000
FFF0
FFF0
ENDCHAR
STARTCHAR 062
ENCODING 62
SWIDTH 1152 0
DWIDTH 16 0
BBX 15 21 1 -3
BITMAP
E000
E000
EC00
EC00
EC00
ECC0
ECC0
ECC8
ECC8
ECCA
ECCA
ECCA
ECC8
ECC8
ECC0
ECC0
EC00
EC00
EC00
E000
E000
ENDCHAR
STARTCHAR 063
ENCODING 63
SWIDTH 1152 0
DWIDTH 16 0
BBX 9 18 4 -2
BITMAP
3F00
7F80
E380
E180
C080
0080
0180
0380
0700
0E00
1C00
1800
1800
0000
1800
3C00
3C00
1800
ENDCHAR
STARTCHAR 064
ENCODING 64
SWIDTH 1152 0
DWIDTH 16 0
BBX 12 22 2 -4
BITMAP
0E00
1F00
1F00
1F00
0E00
0F00
3F80
7FC0
7FE0
EF70
CF30
CF30
9FB0
1F80
1F80
1980
39C0
31C0
31C0
31C0
71C0
70E0
ENDCHAR
STARTCHAR 065
ENCODING 65
SWIDTH 1152 0
DWIDTH 16 0
BBX 15 18 0 -1
BITMAP
0F00
3F80
3FC0
23E0
0770
0670
0E70
0C30
1C38
1C38
1C38
1FFC
1FFC
381C
381C
781E
781E
FC3E
ENDCHAR
STARTCHAR 066
ENCODING 66
SWIDTH 1152 0
DWIDTH 16 0
BBX 12 16 2 0
BITMAP
FF00
7F80
3FC0
38E0
38E0
38E0
38C0
3FE0
3FE0
3830
3830
3830
3860
3FE0
3FC0
3F00
ENDCHAR
STARTCHAR 067
ENCODING 67
SWIDTH 1152 0
DWIDTH 16 0
BBX 13 16 2 0
BITMAP
1FE0
3FF0
3FF0
7838
7038
F030
E060
E000
E000
E000
E000
F010
7830
78F0
3FE0
0F80
ENDCHAR
STARTCHAR 068
ENCODING 68
SWIDTH 1152 0
DWIDTH 16 0
BBX 15 17 0 -1
BITMAP
3FF0
3FF0
3FF8
301C
301E
300E
300E
300E
300E
300E
300E
300E
301E
303C
3FF8
7FF0
FFE0
ENDCHAR
STARTCHAR 069
ENCODING 69
SWIDTH 1152 0
DWIDTH 16 0
BBX 10 17 3 -1
BITMAP
FFC0
7FC0
7FC0
6000
6000
6000
6000
7E00
7E00
7E00
6000
6000
6000
6000
7FC0
7FC0
7FC0
ENDCHAR
STARTCHAR 070
ENCODING 70
SWIDTH 1152 0
DWIDTH 16 0
BBX 11 17 3 -1
BITMAP
FFE0
FFE0
FFE0
E000
E000
E000
E000
FC00
FE00
FF00
E000
E000
E000
E000
E000
E000
E000
ENDCHAR
STARTCHAR 071
ENCODING 71
SWIDTH 1152 0
DWIDTH 16 0
BBX 14 18 1 -1
BITMAP
07C0
3FF0
3FF8
3C38
781C
7000
7000
E000
E000
E070
E0F8
E19C
701C
781C
7C18
3FF8
1FF0
07E0
ENDCHAR
STARTCHAR 072
ENCODING 72
SWIDTH 1152 0
DWIDTH 16 0
BBX 13 17 2 -1
BITMAP
7070
7070
7070
7070
7070
7070
7070
7FF0
7FF0
7070
7070
7070
7070
7070
7070
7070
F8F8
ENDCHAR
STARTCHAR 073
ENCODING 73
SWIDTH 1152 0
DWIDTH 16 0
BBX 7 16 5 0
BITMAP
FE
FE
38
38
38
38
38
38
38
38
38
38
38
38
FE
FE
ENDCHAR
STARTCHAR 074
ENCODING 74
SWIDTH 1152 0
DWIDTH 16 0
BBX 13 18 2 -1
BITMAP
00F8
00F8
0070
0070
0070
0070
0070
0070
0070
0070
0070
F070
6070
6070
70F0
3FE0
3FE0
0FC0
ENDCHAR
STARTCHAR 075
ENCODING 75
SWIDTH 1152 0
DWIDTH 16 0
BBX 15 18 0 -1
BITMAP
0030
7C7C
FC6C
38E4
31C0
3180
3380
3380
3F00
3F00
3F00
3382
3386
31C6
30EE
387C
787C
F838
ENDCHAR
STARTCHAR 076
ENCODING 76
SWIDTH 1152 0
DWIDTH 16 0
BBX 10 16 3 0
BITMAP
F000
7000
7000
7000
7000
7000
7000
7000
7000
7000
7000
7000
7040
7040
7FC0
7FC0
ENDCHAR
STARTCHAR 077
ENCODING 77
SWIDTH 1152 0
DWIDTH 16 0
BBX 15 17 0 -1
BITMAP
180C
181C
181C
1C3C
1C3C
3C3E
3E7E
336E
336E
336E
71CE
71CE
708E
708E
F80E
F80E
FC1E
ENDCHAR
STARTCHAR 078
ENCODING 78
SWIDTH 1152 0
DWIDTH 16 0
BBX 12 17 2 -1
BITMAP
0030
C070
E070
F070
F070
D870
CC70
CE70
CE70
C660
C3E0
C1E0
C1E0
C1E0
C0E0
C0E0
8000
ENDCHAR
STARTCHAR 079
ENCODING 79
SWIDTH 1152 0
DWIDTH 16 0
BBX 14 15 1 0
BITMAP
0F80
3FE0
7FF0
7838
F818
F01C
E61C
E01C
E01C
E01C
6018
7038
3870
1FE0
0780
ENDCHAR
STARTCHAR 080
ENCODING 80
SWIDTH 1152 0
DWIDTH 16 0
BBX 12 17 2 -1
BITMAP
7FC0
3FE0
2070
2030
2010
2030
2070
3FE0
3FC0
2000
2000
2000
2000
2000
2000
6000
E000
ENDCHAR
STARTCHAR 081
ENCODING 81
SWIDTH 1152 0
DWIDTH 16 0
BBX 15 19 1 -2
BITMAP
1F80
7FE0
7FF0
7FF0
E078
E038
E018
E00C
C00C
C00C
C00C
C18C
E18C
60C8
70F8
3FF8
1FF8
001C
0006
ENDCHAR
STARTCHAR 082
ENCODING 82
SWIDTH 1152 0
DWIDTH 16 0
BBX 14 17 1 0
BITMAP
FF00
7FC0
7FE0
60E0
6060
6060
60E0
60E0
7F80
7F00
6780
61C0
61C0
70EC
78FC
787C
F838
ENDCHAR
STARTCHAR 083
ENCODING 83
SWIDTH 1152 0
DWIDTH 16 0
BBX 14 16 1 0
BITMAP
07E0
0FF0
1C78
381C
3000
3000
3800
1FE0
07E0
0070
0018
E018
7018
3838
1FE0
07C0
ENDCHAR
STARTCHAR 084
ENCODING 84
SWIDTH 1152 0
DWIDTH 16 0
BBX 14 17 1 0
BITMAP
8004
FFFC
FFFC
FFFC
0780
0780
0780
0780
0780
0780
0780
0780
0780
0780
0780
0780
0FC0
ENDCHAR
STARTCHAR 085
ENCODING 85
SWIDTH 1152 0
DWIDTH 16 0
BBX 12 16 2 0
BITMAP
E070
E070
E070
E070
E070
E070
E070
E070
E070
E070
E070
E070
E070
70E0
7FC0
3FC0
ENDCHAR
STARTCHAR 086
ENCODING 86
SWIDTH 1152 0
DWIDTH 16 0
BBX 14 16 1 0
BITMAP
F87C
F01C
601C
6018
6038
3030
3030
3060
38E0
38E0
18C0
18C0
0D80
0D80
0700
0700
ENDCHAR
STARTCHAR 087
ENCODING 87
SWIDTH 1152 0
DWIDTH 16 0
BBX 14 16 1 0
BITMAP
E01C
6018
6018
6018
6018
6018
6018
6018
6318
6398
6798
6CD8
7C78
7878
7038
6010
ENDCHAR
STARTCHAR 088
ENCODING 88
SWIDTH 1152 0
DWIDTH 16 0
BBX 14 18 1 0
BITMAP
E01C
E01C
3030
1870
1C70
0CC0
0FC0
0780
0780
0780
0FC0
0CC0
1C60
1870
3870
3030
E01C
E01C
ENDCHAR
STARTCHAR 089
ENCODING 89
SWIDTH 1152 0
DWIDTH 16 0
BBX 14 19 1 -1
BITMAP
E01C
E01C
6018
3030
3030
1860
18E0
08C0
0CC0
0780
0700
0300
0300
0300
0300
0300
0300
0FC0
0780
ENDCHAR
STARTCHAR 090
ENCODING 90
SWIDTH 1152 0
DWIDTH 16 0
BBX 14 16 1 0
BITMAP
4000
FFF8
FFF8
00E0
00E0
01C0
03C0
0700
0700
0700
1C00
1800
3804
780C
FFF8
FFF0
ENDCHAR
STARTCHAR 091
ENCODING 91
SWIDTH 1152 0
DWIDTH 16 0
BBX 7 20 5 -3
BITMAP
FE
FE
FE
C0
C0
C0
C0
C0
C0
C0
C0
C0
C0
C0
C0
C0
C0
FE
FE
FE
ENDCHAR
STARTCHAR 092
ENCODING 92
SWIDTH 1152 0
DWIDTH 16 0
BBX 9 16 4 0
BITMAP
C000
C000
6000
6000
3000
3000
1800
1800
0C00
0C00
0600
0600
0300
0300
0180
0180
ENDCHAR
STARTCHAR 093
ENCODING 93
SWIDTH 1152 0
DWIDTH 16 0
BBX 7 20 5 -3
BITMAP
FE
FE
FE
06
06
06
66
66
06
06
06
06
06
06
06
06
06
FE
FE
FE
ENDCHAR
STARTCHAR 094
ENCODING 94
SWIDTH 1152 0
DWIDTH 16 0
BBX 12 10 2 6
BITMAP
0600
0E00
0F00
1F80
1F80
3FC0
79C0
70E0
F0F0
E070
ENDCHAR
STARTCHAR 095
ENCODING 95
SWIDTH 1152 0
DWIDTH 16 0
BBX 16 3 0 -3
BITMAP
FFFF
FFFF
FFFF
ENDCHAR
STARTCHAR 096
ENCODING 96
SWIDTH 1152 0
DWIDTH 16 0
BBX 4 7 7 9
BITMAP
60
F0
F0
60
60
20
30
ENDCHAR
STARTCHAR 097
ENCODING 97
SWIDTH 1152 0
DWIDTH 16 0
BBX 10 11 4 0
BITMAP
0080
3D80
FF00
E700
C300
C300
C300
C300
E740
7F80
3980
ENDCHAR
STARTCHAR 098
ENCODING 98
SWIDTH 1152 0
DWIDTH 16 0
BBX 11 18 3 -1
BITMAP
1000
3000
7000
F000
3000
3000
3000
3000
3FC0
3FC0
3CC0
3860
3060
3060
38E0
3FC0
7F80
C000
ENDCHAR
STARTCHAR 099
ENCODING 99
SWIDTH 1152 0
DWIDTH 16 0
BBX 9 11 4 0
BITMAP
1E00
3F80
7080
E000
E000
E000
E000
E000
E080
7F80
3F00
ENDCHAR
STARTCHAR 100
ENCODING 100
SWIDTH 1152 0
DWIDTH 16 0
BBX 11 18 3 0
BITMAP
0100
0180
01C0
01C0
01C0
01C0
01C0
01C0
1DC0
7FC0
73C0
61C0
C1C0
C1C0
C1C0
C1C0
7EE0
7E40
ENDCHAR
STARTCHAR 101
ENCODING 101
SWIDTH 1152 0
DWIDTH 16 0
BBX 9 12 4 0
BITMAP
1F00
3F80
7F80
E180
E380
FF00
FC00
C000
E000
E000
7F80
1F00
ENDCHAR
STARTCHAR 102
ENCODING 102
SWIDTH 1152 0
DWIDTH 16 0
BBX 9 16 4 0
BITMAP
1F00
1F80
1D80
1C00
1C00
1C00
1C00
9C00
FF80
FF80
1C80
1C00
1C00
1C00
1C00
1C00
ENDCHAR
STARTCHAR 103
ENCODING 103
SWIDTH 1152 0
DWIDTH 16 0
BBX 9 17 4 -4
BITMAP
1C00
1E80
3F80
6380
6380
6300
6300
3E00
1C00
0F80
1F80
7200
E200
C400
9C00
9800
E000
ENDCHAR
STARTCHAR 104
ENCODING 104
SWIDTH 1152 0
DWIDTH 16 0
BBX 11 17 4 -1
BITMAP
4000
C000
C000
C000
C000
C000
C000
C000
C000
DC00
FE00
E600
E200
C200
C360
C3E0
E3C0
ENDCHAR
STARTCHAR 105
ENCODING 105
SWIDTH 1152 0
DWIDTH 16 0
BBX 5 14 6 0
BITMAP
70
00
00
00
70
70
70
70
70
70
70
70
70
F8
ENDCHAR
STARTCHAR 106
ENCODING 106
SWIDTH 1152 0
DWIDTH 16 0
BBX 9 19 3 -3
BITMAP
0180
0180
0000
0000
0000
0080
0180
0180
0180
0180
0180
0180
0180
0180
8180
8380
E700
7E00
3C00
ENDCHAR
STARTCHAR 107
ENCODING 107
SWIDTH 1152 0
DWIDTH 16 0
BBX 11 15 3 -2
BITMAP
6000
E000
6000
61C0
6340
6640
6C00
7800
7C00
6E00
6700
63A0
61E0
E0E0
8000
ENDCHAR
STARTCHAR 108
ENCODING 108
SWIDTH 1152 0
DWIDTH 16 0
BBX 9 17 3 0
BITMAP
0380
0780
0C80
0C80
1980
1980
1300
1300
3E00
3C00
3800
E000
E180
2380
2300
3C00
1C00
ENDCHAR
STARTCHAR 109
ENCODING 109
SWIDTH 1152 0
DWIDTH 16 0
BBX 13 11 2 0
BITMAP
1CF0
3EF0
77B8
E318
E318
C318
C238
C238
C030
C060
C060
ENDCHAR
STARTCHAR 110
ENCODING 110
SWIDTH 1152 0
DWIDTH 16 0
BBX 13 12 2 0
BITMAP
3000
3000
7F00
BF80
B180
3180
3180
3180
3188
31D8
70F8
F070
ENDCHAR
STARTCHAR 111
ENCODING 111
SWIDTH 1152 0
DWIDTH 16 0
BBX 9 10 4 0
BITMAP
3E00
7300
E180
C080
C080
C080
C080
E180
7F00
1E00
ENDCHAR
STARTCHAR 112
ENCODING 112
SWIDTH 1152 0
DWIDTH 16 0
BBX 9 13 4 -3
BITMAP
7F00
7F80
6180
6080
6180
7F80
7F80
7F00
6000
6000
6000
6000
C000
ENDCHAR
STARTCHAR 113
ENCODING 113
SWIDTH 1152 0
DWIDTH 16 0
BBX 11 15 3 -4
BITMAP
0080
3D80
FF80
E380
E380
C180
C380
E380
FF80
3D80
0180
0180
01E0
0180
0100
ENDCHAR
STARTCHAR 114
ENCODING 114
SWIDTH 1152 0
DWIDTH 16 0
BBX 10 12 4 -1
BITMAP
2000
3000
3F00
7FC0
7380
6000
6000
6000
E000
C000
C000
C000
ENDCHAR
STARTCHAR 115
ENCODING 115
SWIDTH 1152 0
DWIDTH 16 0
BBX 9 12 4 -1
BITMAP
1E00
3F00
6180
6080
3000
1C00
0600
0300
0300
C300
7E00
3C00
ENDCHAR
STARTCHAR 116
ENCODING 116
SWIDTH 1152 0
DWIDTH 16 0
BBX 10 15 3 0
BITMAP
0C00
0C00
0C00
0C00
FC00
7F80
0FC0
0C00
0C00
0C00
0C00
0C00
0C40
0FC0
0F80
ENDCHAR
STARTCHAR 117
ENCODING 117
SWIDTH 1152 0
DWIDTH 16 0
BBX 10 10 3 0
BITMAP
C0C0
C0C0
C0C0
C0C0
C0C0
C0C0
E0C0
7180
3F80
1F00
ENDCHAR
STARTCHAR 118
ENCODING 118
SWIDTH 1152 0
DWIDTH 16 0
BBX 14 11 2 0
BITMAP
F83C
7018
3030
3020
3860
1860
0CC0
0CC0
0680
0780
0300
ENDCHAR
STARTCHAR 119
ENCODING 119
SWIDTH 1152 0
DWIDTH 16 0
BBX 14 10 1 0
BITMAP
C00C
601C
6018
7038
3030
3330
37A0
3CE0
18E0
0840
ENDCHAR
STARTCHAR 120
ENCODING 120
SWIDTH 1152 0
DWIDTH 16 0
BBX 10 11 3 0
BITMAP
C0C0
61C0
3300
1E00
0E00
0C00
0E00
1E00
3300
61C0
C0C0
ENDCHAR
STARTCHAR 121
ENCODING 121
SWIDTH 1152 0
DWIDTH 16 0
BBX 9 13 4 -4
BITMAP
C180
E180
6180
6300
3300
3B00
1E00
0C00
1C00
3800
3000
F000
E000
ENDCHAR
STARTCHAR 122
ENCODING 122
SWIDTH 1152 0
DWIDTH 16 0
BBX 10 11 4 0
BITMAP
FFC0
FFC0
0380
0380
0700
0E00
1C00
3800
7000
FFC0
FFC0
ENDCHAR
STARTCHAR 123
ENCODING 123
SWIDTH 1152 0
DWIDTH 16 0
BBX 7 19 5 -3
BITMAP
1E
18
18
18
18
18
18
38
30
E0
30
18
18
18
18
18
18
18
0E
ENDCHAR
STARTCHAR 124
ENCODING 124
SWIDTH 1152 0
DWIDTH 16 0
BBX 2 19 8 -3
BITMAP
C0
C0
C0
C0
C0
C0
C0
C0
C0
C0
C0
C0
C0
C0
C0
C0
C0
C0
C0
ENDCHAR
STARTCHAR 125
ENCODING 125
SWIDTH 1152 0
DWIDTH 16 0
BBX 8 20 4 -3
BITMAP
F0
38
18
1C
0C
0C
0C
0C
06
03
06
0C
0C
0C
0C
0C
1C
18
78
F0
ENDCHAR
STARTCHAR 126
ENCODING 126
SWIDTH 1152 0
DWIDTH 16 0
BBX 12 9 2 1
BITMAP
3830
7E70
E7E0
C1C0
0000
3830
7E70
E7E0
C1C0
ENDCHAR
STARTCHAR 127
ENCODING 127
SWIDTH 1152 0
DWIDTH 16 0
BBX 16 24 0 -4
BITMAP
FFFF
FFFF
FFFF
FFFF
FFFF
FFFF
FFFF
FFFF
FFFF
FFFF
FFFF
FFFF
FFFF
FFFF
FFFF
FFFF
FFFF
FFFF
FFFF
FFFF
FFFF
FFFF
FFFF
FFFF
ENDCHAR
STARTCHAR 128
ENCODING 128
SWIDTH 1152 0
DWIDTH 16 0
BBX 16 22 0 -4
BITMAP
FFFF
FFFF
F007
E003
C7FB
81C1
8001
85D0
1414
15D4
D414
D554
1550
1554
1554
1550
1554
1554
1554
D554
1554
1554
ENDCHAR
STARTCHAR 129
ENCODING 129
SWIDTH 1152 0
DWIDTH 16 0
BBX 6 21 1 -4
BITMAP
E0
E0
A0
A0
E0
E0
E0
E0
E0
E0
FC
FC
E0
E0
E0
E0
E0
E0
A0
E0
E0
ENDCHAR
STARTCHAR 130
ENCODING 130
SWIDTH 1152 0
DWIDTH 16 0
BBX 14 17 1 -1
BITMAP
F87C
F03C
E01C
E01C
E01C
E01C
E01C
E01C
E01C
E01C
E01C
E01C
F03C
7878
3FF0
3FE0
0FC0
ENDCHAR
STARTCHAR 131
ENCODING 131
SWIDTH 1152 0
DWIDTH 16 0
BBX 14 22 1 -3
BITMAP
0700
0F80
0A80
0F80
0A80
0D80
0700
0780
0FC0
1FE0
3FF0
77B8
E79C
0FC0
0FC0
0300
0300
0300
0300
0300
0300
0300
ENDCHAR
STARTCHAR 132
ENCODING 132
SWIDTH 1152 0
DWIDTH 16 0
BBX 12 12 3 2
BITMAP
0600
0600
36C0
36C0
36C0
B6F0
B6F0
36C0
36C0
36C0
0600
0600
ENDCHAR
STARTCHAR 133
ENCODING 133
SWIDTH 1152 0
DWIDTH 16 0
BBX 13 20 2 -4
BITMAP
1250
2FA0
5CC0
3FD8
37D8
F760
3FE0
DF78
3F60
37D8
3FE0
BFC8
FCD8
4CB0
1FC0
2FA0
0700
0700
0700
0700
ENDCHAR
STARTCHAR 134
ENCODING 134
SWIDTH 1152 0
DWIDTH 16 0
BBX 13 17 2 -4
BITMAP
0800
0280
0C40
1190
2960
1780
5780
3EE8
0FF0
D7E0
D760
3FF8
D9E0
E990
17A0
0700
0700
ENDCHAR
STARTCHAR 135
ENCODING 135
SWIDTH 1152 0
DWIDTH 16 0
BBX 13 20 2 -4
BITMAP
33E0
1980
0780
3568
1DC0
CB80
4B10
4EE0
9E00
1B90
E760
0E20
1E00
7780
1700
2600
0600
0700
0700
0700
ENDCHAR
STARTCHAR 136
ENCODING 136
SWIDTH 1152 0
DWIDTH 16 0
BBX 16 24 0 -4
BITMAP
0CC3
0CC2
110E
D10C
7230
32C8
0D06
FD31
FD31
02C8
02C8
CD16
CD17
32C1
CE27
012C
0128
32D0
CCD7
CCD7
0128
032C
36D5
34D7
ENDCHAR
STARTCHAR 137
ENCODING 137
SWIDTH 1152 0
DWIDTH 16 0
BBX 15 24 1 -4
BITMAP
8000
8200
4000
8000
8400
8A00
8600
80A0
8850
8800
4010
A080
110C
8802
8008
0510
A060
2810
5102
800C
4410
4108
B404
4000
ENDCHAR
STARTCHAR 138
ENCODING 138
SWIDTH 1152 0
DWIDTH 16 0
BBX 16 4 0 6
BITMAP
2222
7666
FFFF
CDD9
ENDCHAR
STARTCHAR 139
ENCODING 139
SWIDTH 1152 0
DWIDTH 16 0
BBX 15 23 1 -4
BITMAP
0840
0000
2108
0000
8242
0800
0000
0100
0000
5C70
37FA
3FF8
638C
4104
0100
0102
8100
1FF0
210C
6106
600E
7FFE
3FFC
ENDCHAR
STARTCHAR 140
ENCODING 140
SWIDTH 1152 0
DWIDTH 16 0
BBX 16 16 0 -4
BITMAP
0018
003C
0034
07C6
17FE
3C7A
5F47
69C7
F9C7
CCFE
CFFD
D114
6D66
DE82
DF92
0E66
ENDCHAR
STARTCHAR 141
ENCODING 141
SWIDTH 1152 0
DWIDTH 16 0
BBX 15 23 1 -4
BITMAP
0A80
0A80
1680
1782
1F82
0A86
0F86
0F0C
150C
171C
1218
3F58
7FB0
7FFC
FF30
FF40
FFE0
FF40
FFC0
FFC0
FFC0
FFC0
AA80
ENDCHAR
STARTCHAR 142
ENCODING 142
SWIDTH 1152 0
DWIDTH 16 0
BBX 16 20 0 -4
BITMAP
01C0
03F0
0FF8
3FFE
CFFD
E7FB
F3E7
FCDF
FF3F
FF7F
FF7F
FF7F
FF7F
FF7F
7F7F
3F7E
0F7C
0370
01C0
0080
ENDCHAR
STARTCHAR 143
ENCODING 143
SWIDTH 1152 0
DWIDTH 16 0
BBX 16 24 0 -4
BITMAP
8000
4001
4001
2002
1004
0000
0808
0410
0220
0220
0000
0140
0080
00C0
0000
0020
0220
0410
0808
0000
0004
2002
2001
4001
ENDCHAR
STARTCHAR 144
ENCODING 144
SWIDTH 1152 0
DWIDTH 16 0
BBX 16 24 0 -4
BITMAP
8000
4001
4001
2002
1004
0000
0808
0410
0220
0220
0000
0140
0080
00C0
0000
0020
0220
0410
0808
0000
0004
2002
2001
4001
ENDCHAR
STARTCHAR 145
ENCODING 145
SWIDTH 1152 0
DWIDTH 16 0
BBX 16 24 0 -4
BITMAP
BDED
FFFF
FB6F
5FFB
F7FF
B7F5
FFFF
FFF5
EBBF
7FDF
FEFF
7FBF
EFD7
FD7F
DFCF
7FCF
F7FF
FFBB
FFFF
FFAB
D3FF
FFB5
FFFF
DDDF
ENDCHAR
STARTCHAR 146
ENCODING 146
SWIDTH 1152 0
DWIDTH 16 0
BBX 16 24 0 -4
BITMAP
FFFF
7DEF
7DEF
39C7
8210
C638
FFFF
7DEF
7DEF
39C7
39C7
C638
FFFF
FFFF
7DEF
39C7
39C7
8210
FFFF
FFFF
7DEF
38C6
BAD6
C739
ENDCHAR
STARTCHAR 147
ENCODING 147
SWIDTH 1152 0
DWIDTH 16 0
BBX 12 18 3 -2
BITMAP
0400
0600
0600
0E00
1700
1F00
3F80
4440
5500
7FE0
C2F0
EB10
3A60
5680
1E80
0700
0E00
0200
ENDCHAR
STARTCHAR 148
ENCODING 148
SWIDTH 1152 0
DWIDTH 16 0
BBX 16 23 0 -4
BITMAP
3D36
7E3F
5FBF
1E1D
0000
0000
FDFF
FB7F
FDF7
FFBB
0000
0000
6F3A
FE3E
FFBE
7E3E
BD35
0000
3E7D
7C7F
3E7F
7EBE
264D
ENDCHAR
STARTCHAR 149
ENCODING 149
SWIDTH 1152 0
DWIDTH 16 0
BBX 16 24 0 -4
BITMAP
FDF7
7DEF
8F5B
AEBB
7B76
73EF
0B6B
FDEF
7FED
A7DE
5EE3
FBB5
0EB6
F6F4
74EF
8BD3
7D1B
FF59
8DEE
7BFC
76CB
AF26
DD6E
F579
ENDCHAR
STARTCHAR 150
ENCODING 150
SWIDTH 1152 0
DWIDTH 16 0
BBX 16 23 0 -4
BITMAP
3D36
6A2B
53BF
1E1D
0000
0000
FDBD
FB5A
D5F5
E7BB
0000
0000
6F3A
EA0E
DDB4
6A1A
BD35
0000
3E7D
5C5B
1C5B
6ABA
564D
ENDCHAR
STARTCHAR 151
ENCODING 151
SWIDTH 1152 0
DWIDTH 16 0
BBX 15 12 1 2
BITMAP
0004
1C06
7E1C
7FA8
FFB6
E3E8
C1F2
9CF4
2202
630E
C39C
81F8
ENDCHAR
STARTCHAR 152
ENCODING 152
SWIDTH 1152 0
DWIDTH 16 0
BBX 16 17 0 -2
BITMAP
0003
0007
000F
001E
003C
0078
00F0
21E0
23C0
3780
0F00
0E00
1E00
3100
71C0
E000
C000
ENDCHAR
STARTCHAR 153
ENCODING 153
SWIDTH 1152 0
DWIDTH 16 0
BBX 13 23 1 -4
BITMAP
E000
E000
7800
3C00
1F80
1FC0
1FF0
1C70
1C70
1C30
1C70
1FF0
1FE0
1C38
1C18
1C08
1C18
0FF0
17F0
17E0
3C00
7C00
F800
ENDCHAR
STARTCHAR 154
ENCODING 154
SWIDTH 1152 0
DWIDTH 16 0
BBX 14 17 1 -1
BITMAP
0018
07F8
1FF8
3FF8
7CF8
7CD8
7E78
F800
F800
E000
E000
E000
E200
FE9C
7F70
3FE0
3FE0
ENDCHAR
STARTCHAR 155
ENCODING 155
SWIDTH 1152 0
DWIDTH 16 0
BBX 15 19 0 -4
BITMAP
1FC0
1FF0
1FF8
1C7C
1C3C
1C1E
3C0E
7C0E
F40E
F40E
7C0E
3C0E
1C0E
1C1E
1C3C
1C7C
1FF0
1FF0
1FC0
ENDCHAR
STARTCHAR 156
ENCODING 156
SWIDTH 1152 0
DWIDTH 16 0
BBX 16 19 0 -4
BITMAP
FFF8
7FFC
1A3E
0E1F
0E0F
0E07
0E07
0E07
0E07
0E07
0E07
0E07
0E07
0E07
0E0F
0A1F
3FFE
7FFC
FFF8
ENDCHAR
STARTCHAR 157
ENCODING 157
SWIDTH 1152 0
DWIDTH 16 0
BBX 16 24 0 -4
BITMAP
8000
4001
4001
2002
1004
0000
0808
0410
0220
0220
0000
0140
0080
00C0
0000
0020
0220
0410
0808
0000
0004
2002
2001
4001
ENDCHAR
STARTCHAR 158
ENCODING 158
SWIDTH 1152 0
DWIDTH 16 0
BBX 10 22 3 -2
BITMAP
0E00
0E00
0C00
0C00
1C00
1800
3000
3000
6040
7FC0
FFC0
E180
0180
0100
0300
0700
0600
0E00
2C00
3800
3800
3C00
ENDCHAR
STARTCHAR 159
ENCODING 159
SWIDTH 1152 0
DWIDTH 16 0
BBX 16 19 0 -1
BITMAP
00C0
61C0
3304
1304
1204
16F8
07B7
C7A6
E6A4
3649
136B
0B29
11E6
D9E6
2ECC
3F53
03BB
0FB7
0FAE
ENDCHAR
STARTCHAR 160
ENCODING 160
SWIDTH 1152 0
DWIDTH 16 0
BBX 15 19 1 -1
BITMAP
03C0
0240
03C0
E246
E3C6
0000
701E
77DE
77DE
07C0
07C0
07C0
0000
1C18
1C18
1C18
001E
3C1E
3C1E
ENDCHAR
STARTCHAR 161
ENCODING 161
SWIDTH 1152 0
DWIDTH 16 0
BBX 16 22 0 -3
BITMAP
0001
61C3
33E2
3AB6
1DEE
1D28
0FF6
3FF6
FDBF
FDB7
CDB3
CDB3
E433
EFF7
07F7
2FF0
1E38
1C1C
1414
1C14
3C1E
641B
ENDCHAR
STARTCHAR 162
ENCODING 162
SWIDTH 1152 0
DWIDTH 16 0
BBX 16 24 0 -4
BITMAP
01F0
0156
1AA6
1F7F
7007
F0C7
F1E7
FDEF
7DEF
7EDE
3F3E
07F8
07F8
07F8
0FF8
1FFC
7FFE
7FFF
381F
3807
1C0E
0C38
1838
303E
ENDCHAR
STARTCHAR 163
ENCODING 163
SWIDTH 1152 0
DWIDTH 16 0
BBX 15 24 1 -4
BITMAP
0002
0062
0076
003E
001E
000E
000E
000E
000E
000E
000E
381E
7C7E
7C7E
FFFE
FFFE
EFFE
FFFC
FBF8
EBF0
D7F0
37C0
2F80
1E00
ENDCHAR
STARTCHAR 164
ENCODING 164
SWIDTH 1152 0
DWIDTH 16 0
BBX 15 22 0 -3
BITMAP
7700
FF80
CA80
CF80
8700
0600
39C0
3FE0
6FF0
6F3E
C70C
F300
7C00
03C0
1FC0
3FC0
3FC0
7FE0
FFE0
E3F0
3000
7030
ENDCHAR
STARTCHAR 165
ENCODING 165
SWIDTH 1152 0
DWIDTH 16 0
BBX 16 21 0 -2
BITMAP
01C0
0220
01C0
0000
11C8
39CC
7DDE
7D5F
7AAF
F94F
F5D7
FFFF
FFFF
EDDF
EFDF
6BFF
6BEF
4FE1
4261
0220
0E38
ENDCHAR
STARTCHAR 166
ENCODING 166
SWIDTH 1152 0
DWIDTH 16 0
BBX 16 23 0 -3
BITMAP
000F
00DE
01FE
03BE
07BF
077F
067E
07FE
07F4
0DCF
0CDC
01F0
3BF8
F318
A740
0F80
0FC0
07F8
03FC
0DFF
197E
1A3C
1300
ENDCHAR
STARTCHAR 167
ENCODING 167
SWIDTH 1152 0
DWIDTH 16 0
BBX 16 16 0 0
BITMAP
CC00
7C00
D400
FC06
7E07
7F03
7FF9
3FFD
1FFF
1FFC
1FFE
1FBE
1B9B
111B
111B
1137
ENDCHAR
STARTCHAR 168
ENCODING 168
SWIDTH 1152 0
DWIDTH 16 0
BBX 16 22 0 -4
BITMAP
0180
06C0
01CE
03DE
01DC
B1F8
F1F8
39FA
7DF5
1FE7
0FEF
0FCE
0FFC
07F8
03F8
01F0
01F8
00F8
0E78
3FFF
3FFF
1DCF
ENDCHAR
STARTCHAR 169
ENCODING 169
SWIDTH 1152 0
DWIDTH 16 0
BBX 16 20 0 -3
BITMAP
3006
3416
3416
3636
33E6
F2AF
79C7
95DC
F88F
FBE7
F36F
33E6
E9CB
51CD
13EC
17FC
03E8
01C8
363E
200A
ENDCHAR
STARTCHAR 170
ENCODING 170
SWIDTH 1152 0
DWIDTH 16 0
BBX 16 24 0 -4
BITMAP
40C0
A121
5492
AA15
15FA
01F5
03E8
0350
02A0
0150
06B0
3413
1106
09E4
17FA
1DEE
0CC8
2EDA
23F2
13F4
21E2
01E0
01E0
01E0
ENDCHAR
STARTCHAR 171
ENCODING 171
SWIDTH 1152 0
DWIDTH 16 0
BBX 16 17 0 -1
BITMAP
2084
1888
8888
47F0
47F0
467B
3C3C
0908
0988
7998
8C38
8C3C
0E7B
0BF0
1088
3084
4084
ENDCHAR
STARTCHAR 172
ENCODING 172
SWIDTH 1152 0
DWIDTH 16 0
BBX 13 21 2 -4
BITMAP
03F0
0BE8
1C18
1018
0C78
07F8
03F8
06F8
0BE0
05E0
03E0
0FC0
0380
1700
1700
1E00
0C00
3800
2000
4000
8000
ENDCHAR
STARTCHAR 173
ENCODING 173
SWIDTH 1152 0
DWIDTH 16 0
BBX 16 15 0 -3
BITMAP
0006
0006
0007
1201
3601
7E01
6E39
7FFF
3FFF
7FFF
3FFF
7FBF
F71B
8C3B
1806
ENDCHAR
STARTCHAR 174
ENCODING 174
SWIDTH 1152 0
DWIDTH 16 0
BBX 16 20 0 -4
BITMAP
003C
0042
0081
0134
0201
0E01
0C19
2C3B
5C31
3A03
4C05
0002
8C1A
1A2C
2424
D782
3D64
4D40
1080
2100
ENDCHAR
STARTCHAR 175
ENCODING 175
SWIDTH 1152 0
DWIDTH 16 0
BBX 16 18 0 -4
BITMAP
00E0
03F1
0191
01F1
01A1
0FE1
0FA1
1F29
3F1B
3F4D
7F45
7F49
FF24
FF33
FF5B
F818
0000
0C0C
ENDCHAR
STARTCHAR 176
ENCODING 176
SWIDTH 1152 0
DWIDTH 16 0
BBX 8 19 5 -3
BITMAP
30
78
58
78
38
3C
3E
3F
3B
39
59
59
59
9D
15
14
14
14
14
ENDCHAR
STARTCHAR 177
ENCODING 177
SWIDTH 1152 0
DWIDTH 16 0
BBX 15 23 1 -3
BITMAP
0002
0006
000E
000E
038E
0448
06C8
0448
0388
145C
2BAC
EBBE
F7DE
F83E
F920
E6C0
E920
E6C0
6FE0
0EE0
0C60
1C70
1C70
ENDCHAR
STARTCHAR 178
ENCODING 178
SWIDTH 1152 0
DWIDTH 16 0
BBX 14 21 2 -3
BITMAP
0004
170C
0D18
0410
0730
1D20
1440
1FC0
1780
1C80
1A40
0A00
1F00
3F00
3900
3900
3080
3080
2080
60C0
C0E0
ENDCHAR
STARTCHAR 179
ENCODING 179
SWIDTH 1152 0
DWIDTH 16 0
BBX 16 23 0 -3
BITMAP
1002
1002
1806
0E0C
01E0
0150
00F0
07D8
37EB
7807
7807
E21B
E3FB
7006
77FE
03F0
0618
0E1C
0E0E
0C06
1C06
3003
7003
ENDCHAR
STARTCHAR 180
ENCODING 180
SWIDTH 1152 0
DWIDTH 16 0
BBX 15 22 1 -4
BITMAP
0040
0140
0008
0000
000E
07BE
3FF4
7FF6
7FFE
3F9E
3F3C
6E78
ECFC
E1FC
63F8
7FF0
3FF0
7CF0
7C72
1800
0030
8000
ENDCHAR
STARTCHAR 181
ENCODING 181
SWIDTH 1152 0
DWIDTH 16 0
BBX 16 15 0 1
BITMAP
0F00
3FC0
7FF9
FBFE
70E8
7000
7C1E
1FFF
1FFF
0F07
0007
0FFF
3FFE
6FFF
F000
ENDCHAR
STARTCHAR 182
ENCODING 182
SWIDTH 1152 0
DWIDTH 16 0
BBX 16 20 0 -2
BITMAP
70A8
70A8
A0F8
70F8
2090
2048
226C
2153
27AB
2120
68C8
6130
21FC
2226
21AB
2304
2206
2002
2206
2E07
ENDCHAR
STARTCHAR 183
ENCODING 183
SWIDTH 1152 0
DWIDTH 16 0
BBX 16 24 0 -4
BITMAP
2210
1122
888C
77F8
07FC
0AB3
3BE8
C124
01E2
01E0
07F0
0FD8
0DCC
19CC
33CC
33E6
27F0
0FF0
0FF8
0FFC
1FFC
31FC
08B8
0C40
ENDCHAR
STARTCHAR 184
ENCODING 184
SWIDTH 1152 0
DWIDTH 16 0
BBX 13 16 2 0
BITMAP
8008
4510
6AB0
3560
3AE0
5FD0
AFA8
5FD0
5FD0
AFA8
5FD0
3AE0
3560
6AB0
4510
8008
ENDCHAR
STARTCHAR 185
ENCODING 185
SWIDTH 1152 0
DWIDTH 16 0
BBX 16 23 0 -4
BITMAP
0220
0630
0220
C1E0
22A0
11C0
182D
05EB
361E
37F5
73D9
F1F1
C223
F8FB
7D24
1EDE
0E1A
001C
000C
0C0C
0C0C
1C0E
3807
ENDCHAR
STARTCHAR 186
ENCODING 186
SWIDTH 1152 0
DWIDTH 16 0
BBX 16 22 0 -3
BITMAP
0002
0005
00C5
01E5
03E2
02C6
023E
0F0A
0A52
1196
24A2
443A
4E66
8192
8E12
780A
0002
3002
33C6
FC0E
7FFA
1E70
ENDCHAR
STARTCHAR 187
ENCODING 187
SWIDTH 1152 0
DWIDTH 16 0
BBX 15 19 0 -3
BITMAP
00E0
01F0
01B0
07F8
07F8
87FC
4FFE
3FF6
1DF6
1DFC
03F8
03F8
03F8
03F8
07F8
07FC
07FC
0E06
0C06
ENDCHAR
STARTCHAR 188
ENCODING 188
SWIDTH 1152 0
DWIDTH 16 0
BBX 16 21 0 -4
BITMAP
C180
2340
1BC0
0DC0
16A0
3780
373F
763F
01BF
33AF
378F
0DE7
0A5E
299E
644C
1808
1034
3030
4038
7038
F01C
ENDCHAR
STARTCHAR 189
ENCODING 189
SWIDTH 1152 0
DWIDTH 16 0
BBX 16 24 0 -4
BITMAP
1040
1040
13F6
13F6
6FFE
7FBE
7FBE
7C0E
7006
7006
EE3A
7E39
7E39
1E31
0C39
0C39
1D80
1D82
01C8
1E7C
1E78
1200
6206
6206
ENDCHAR
STARTCHAR 190
ENCODING 190
SWIDTH 1152 0
DWIDTH 16 0
BBX 16 24 0 -4
BITMAP
00F8
00F8
00A0
00F8
3A78
3838
38BE
F297
F427
F367
C887
A467
7123
FA63
023A
0839
1418
1398
3A9C
FB5F
F8DF
F81F
3800
3800
ENDCHAR
STARTCHAR 191
ENCODING 191
SWIDTH 1152 0
DWIDTH 16 0
BBX 16 22 0 -3
BITMAP
0001
0003
000F
003F
003F
001E
07FF
0FFF
1FF8
7FF0
FFF8
FFF8
FFF8
FFFC
FFDE
FFCE
EFCD
ECE0
EC70
EE10
7200
3000
ENDCHAR
STARTCHAR 192
ENCODING 192
SWIDTH 1152 0
DWIDTH 16 0
BBX 16 21 0 -3
BITMAP
01F0
00E8
C1FC
71EC
71EC
31E3
30F7
31FD
11F9
17F1
0FE0
0FC0
03C0
07C0
0EC0
0CC0
0CC0
0660
0330
0110
0088
ENDCHAR
STARTCHAR 193
ENCODING 193
SWIDTH 1152 0
DWIDTH 16 0
BBX 16 19 0 -3
BITMAP
07FC
07FC
3FFF
FC73
F3FF
F7F9
F7F9
FE1B
FE19
EE5D
EE3B
EFDB
F7CB
37F7
3F77
3FFB
0FFE
0003
0001
ENDCHAR
STARTCHAR 194
ENCODING 194
SWIDTH 1152 0
DWIDTH 16 0
BBX 15 12 0 -4
BITMAP
1070
39F8
EFFC
3FFE
1FFE
0FFE
027E
0076
0022
0002
0002
0002
ENDCHAR
STARTCHAR 195
ENCODING 195
SWIDTH 1152 0
DWIDTH 16 0
BBX 16 24 0 -4
BITMAP
0700
0F98
1FCC
3E66
7FE7
F7E3
DBF3
6FF3
BFF3
FDFB
F3FB
03FB
07FB
4DFB
3DFF
49FF
21FF
01FF
03BC
039C
039C
0398
0318
0730
ENDCHAR
STARTCHAR 196
ENCODING 196
SWIDTH 1152 0
DWIDTH 16 0
BBX 13 24 2 -4
BITMAP
0E00
1B00
FF00
FF80
1F80
FFC0
1FC0
0FC0
3FC8
7FC8
EFC8
8FD8
CFD8
0FF8
0FF8
0FF0
0FF0
0FE0
1FC0
1FC0
1EC0
0CC0
1CC0
3980
ENDCHAR
STARTCHAR 197
ENCODING 197
SWIDTH 1152 0
DWIDTH 16 0
BBX 16 21 0 -4
BITMAP
01C0
5225
2945
E222
A086
4121
2082
0220
0410
0948
02A0
0410
0080
0140
0220
0410
0210
0210
0120
0220
0230
ENDCHAR
STARTCHAR 198
ENCODING 198
SWIDTH 1152 0
DWIDTH 16 0
BBX 16 23 0 -4
BITMAP
0200
0380
01C0
7C40
6E40
0620
73FF
FFFF
FF7F
C3FF
0FFE
1F68
33FF
719F
E1E9
E1ED
C1A4
0134
0134
0136
0136
0136
0036
ENDCHAR
STARTCHAR 199
ENCODING 199
SWIDTH 1152 0
DWIDTH 16 0
BBX 16 20 0 -2
BITMAP
00C0
01E0
00A0
0DE6
0F28
16DE
3B37
7BF7
F3F7
E3F3
7213
71E3
08C7
1638
0E3C
0E38
0214
061C
1E1E
3A13
ENDCHAR
STARTCHAR 200
ENCODING 200
SWIDTH 1152 0
DWIDTH 16 0
BBX 13 15 2 -3
BITMAP
3F80
3FC0
7760
F8E0
FAF0
D8F0
C038
EF98
F8D8
F8F8
F878
7278
7270
3FE0
1FE0
ENDCHAR
STARTCHAR 201
ENCODING 201
SWIDTH 1152 0
DWIDTH 16 0
BBX 16 22 0 -4
BITMAP
1224
3226
4A29
4631
87F0
D949
640E
9BC7
942E
AC9B
EB4D
E085
1340
0010
0760
0618
0600
0614
043C
0428
0330
0130
ENDCHAR
STARTCHAR 202
ENCODING 202
SWIDTH 1152 0
DWIDTH 16 0
BBX 14 21 1 -3
BITMAP
00C0
07E0
03A0
01E0
01FC
F3F0
77F8
37BC
37EC
3F80
3FC0
1FC0
0FE0
0F20
0730
0198
0300
0300
0600
0400
0400
ENDCHAR
STARTCHAR 203
ENCODING 203
SWIDTH 1152 0
DWIDTH 16 0
BBX 15 23 1 -4
BITMAP
0380
0440
0440
0AA0
0920
0828
1FF0
3ABC
728C
700C
600C
600C
682C
644C
6444
4284
729C
211C
2018
3818
FC7E
E00E
0C60
ENDCHAR
STARTCHAR 204
ENCODING 204
SWIDTH 1152 0
DWIDTH 16 0
BBX 16 22 0 -3
BITMAP
00F8
01F8
0378
0638
0638
0618
0FF8
1FFC
3FFE
71FB
F1FB
E3F9
C3F8
87F8
07F8
07F8
0FFC
0FFC
0FFC
3FFC
01FC
00FC
ENDCHAR
STARTCHAR 205
ENCODING 205
SWIDTH 1152 0
DWIDTH 16 0
BBX 15 24 1 -4
BITMAP
0004
1506
150C
1F06
0F06
090C
0F06
1686
10CC
39E6
3FEC
7FFC
7FF6
FF36
FD98
EF94
F3C8
B3CC
FFC0
FFC0
FFC0
30C0
38F0
3CF0
ENDCHAR
STARTCHAR 206
ENCODING 206
SWIDTH 1152 0
DWIDTH 16 0
BBX 16 24 0 -4
BITMAP
1F80
1258
167F
1FFF
3FDD
306B
0577
09F7
0877
0CF7
0C77
0E7F
0E7E
0E7F
1C76
3AEF
70D7
F1E3
F9C1
E981
99C1
5181
03C3
0383
ENDCHAR
STARTCHAR 207
ENCODING 207
SWIDTH 1152 0
DWIDTH 16 0
BBX 16 15 0 2
BITMAP
1000
1F00
0F80
01C0
FFF0
F0F8
07FF
0FFF
F3FF
0EFF
1DFF
F33F
C60F
1C03
3800
ENDCHAR
STARTCHAR 208
ENCODING 208
SWIDTH 1152 0
DWIDTH 16 0
BBX 16 23 0 -4
BITMAP
01C0
01C0
0080
01C0
2000
A1C0
2D63
67FB
CAD9
616A
0360
02E0
0380
02F0
01A0
0530
0620
0620
0000
0220
0220
0E38
0E38
ENDCHAR
STARTCHAR 209
ENCODING 209
SWIDTH 1152 0
DWIDTH 16 0
BBX 15 20 1 -3
BITMAP
FFF0
73F0
3BF8
1E3E
1E1E
1E1E
1E1E
FE1E
721E
3A1E
1E1E
1E1E
1E1E
1E1E
FE1E
723E
3A7C
1FF0
1FF0
1FE0
ENDCHAR
STARTCHAR 210
ENCODING 210
SWIDTH 1152 0
DWIDTH 16 0
BBX 16 23 0 -3
BITMAP
FFE0
7FF8
3FF8
09FE
093E
0F1F
7F0F
3D07
1907
0907
0F07
FF07
7D07
1907
0F07
0F07
0F07
791F
393E
1FFE
0FF8
0FF8
0FE0
ENDCHAR
STARTCHAR 211
ENCODING 211
SWIDTH 1152 0
DWIDTH 16 0
BBX 13 19 2 -1
BITMAP
FF80
7FE0
38F0
3870
3838
3838
3AB8
3838
3838
3838
3838
3B38
3838
3878
38F0
3FF0
FFE0
34B0
6CD8
ENDCHAR
STARTCHAR 212
ENCODING 212
SWIDTH 1152 0
DWIDTH 16 0
BBX 16 22 0 -3
BITMAP
0FF8
3FF8
FE3E
FE1E
EE0F
CFAF
8FAF
8FAF
8E0F
0E0F
0ECF
0ECF
0E0F
0E1E
1E3E
3FFC
FFF8
1A2E
1237
763B
EE36
EC44
ENDCHAR
STARTCHAR 213
ENCODING 213
SWIDTH 1152 0
DWIDTH 16 0
BBX 16 17 0 -1
BITMAP
FFF8
3FFC
1FFE
180F
18CF
F8C7
38C7
18C7
18C7
1AD7
F9E7
38C7
180F
181F
2FFC
2FFC
FFF0
ENDCHAR
STARTCHAR 214
ENCODING 214
SWIDTH 1152 0
DWIDTH 16 0
BBX 14 17 2 -4
BITMAP
03C0
07E0
07E0
0E70
381C
381C
7C38
CFE0
67E0
61C0
3080
3818
3C38
1E60
07C0
0780
0300
ENDCHAR
STARTCHAR 215
ENCODING 215
SWIDTH 1152 0
DWIDTH 16 0
BBX 11 20 3 -3
BITMAP
1B00
7F80
7F80
FFC0
C060
C060
C000
C000
C800
DD00
F780
C100
C000
C000
C000
FFC0
FFC0
FFC0
2480
1B00
ENDCHAR
STARTCHAR 216
ENCODING 216
SWIDTH 1152 0
DWIDTH 16 0
BBX 13 22 2 -4
BITMAP
0300
0780
0FC0
1FE0
3FF0
78F0
7078
F038
7070
3DE0
1FC0
0FC0
07F0
0FC0
0FC0
1D80
1980
1180
1180
1F00
1E00
0C00
ENDCHAR
STARTCHAR 217
ENCODING 217
SWIDTH 1152 0
DWIDTH 16 0
BBX 14 20 1 -1
BITMAP
0004
000C
07DC
3FFC
3FFC
3C3C
701C
700C
7004
E000
E020
E070
E0F0
E3FC
701C
781C
7C1C
3FF0
7FE0
FFE0
ENDCHAR
STARTCHAR 218
ENCODING 218
SWIDTH 1152 0
DWIDTH 16 0
BBX 13 17 2 -1
BITMAP
1000
1000
3000
71C0
F1C0
3000
3000
3000
3000
3700
3F80
3F80
3180
3188
31D8
31F8
78F0
ENDCHAR
STARTCHAR 219
ENCODING 219
SWIDTH 1152 0
DWIDTH 16 0
BBX 13 18 2 -1
BITMAP
0080
11C0
12A0
3280
7280
F1C0
30A0
32A0
31C0
3080
3700
3F80
3F80
3180
3188
31D8
31F8
78F0
ENDCHAR
STARTCHAR 220
ENCODING 220
SWIDTH 1152 0
DWIDTH 16 0
BBX 15 20 1 -2
BITMAP
0200
0C04
7838
7830
F870
3838
1818
1818
1818
3FF8
3FF0
3C70
1838
1818
1818
3818
7838
7C7C
FC7E
1010
ENDCHAR
STARTCHAR 221
ENCODING 221
SWIDTH 1152 0
DWIDTH 16 0
BBX 15 20 1 -4
BITMAP
0010
0030
005C
0030
0000
0000
0000
0010
0030
0030
00BA
0034
0030
0030
F030
D83C
9C60
6CE0
0FC0
0780
ENDCHAR
STARTCHAR 222
ENCODING 222
SWIDTH 1152 0
DWIDTH 16 0
BBX 16 18 0 -1
BITMAP
01FF
00FF
007E
003C
0028
0030
0028
0030
0030
0028
0030
FE30
7C28
7830
3028
1CF8
1FF8
0FF0
ENDCHAR
STARTCHAR 223
ENCODING 223
SWIDTH 1152 0
DWIDTH 16 0
BBX 14 19 1 -2
BITMAP
FE00
2A00
1600
1A00
1E00
1A00
1600
1A00
1600
1A00
1A00
1A04
1A0C
160C
1A1C
17FC
1924
16DC
3FFC
ENDCHAR
STARTCHAR 224
ENCODING 224
SWIDTH 1152 0
DWIDTH 16 0
BBX 16 20 0 -3
BITMAP
FFF0
3FC0
1FC0
0F80
0F80
0F80
0F80
0F80
0F80
0F80
0F80
0F81
0F83
0F87
0F87
0FFF
0FFF
1FFF
7FFF
FFFF
ENDCHAR
STARTCHAR 225
ENCODING 225
SWIDTH 1152 0
DWIDTH 16 0
BBX 12 13 1 -3
BITMAP
FFC0
3FF0
1C70
1C30
1C30
1C70
1FE0
1F80
1800
1800
1800
1800
1000
ENDCHAR
STARTCHAR 226
ENCODING 226
SWIDTH 1152 0
DWIDTH 16 0
BBX 14 17 1 -4
BITMAP
FFF0
7FF0
3FF8
1E18
1E1C
1E1C
FE1C
3E1C
1FF8
1FF8
1DF0
1C00
1C00
1C00
1C00
1800
1800
ENDCHAR
STARTCHAR 227
ENCODING 227
SWIDTH 1152 0
DWIDTH 16 0
BBX 15 17 0 -4
BITMAP
FFF8
73F8
33F8
1A1E
0E1E
FE1E
721E
1A1E
0FFE
0FF8
FFF8
3200
1A00
0E00
0E00
0E00
0E00
ENDCHAR
STARTCHAR 228
ENCODING 228
SWIDTH 1152 0
DWIDTH 16 0
BBX 14 20 1 -4
BITMAP
8004
0000
2200
1240
0000
7FE0
3FF0
3C38
1C58
1C38
1C30
1FF8
1FC0
1C30
1E00
1E00
1E00
1E00
1800
1400
ENDCHAR
STARTCHAR 229
ENCODING 229
SWIDTH 1152 0
DWIDTH 16 0
BBX 15 21 0 -4
BITMAP
0E02
19CC
10F8
3078
0000
0000
FFF8
FFFC
0E1E
0E1E
0E1E
FE1E
3E1E
0E1E
0FFE
FFFC
FEF8
3E00
0E00
0E00
0E00
ENDCHAR
STARTCHAR 230
ENCODING 230
SWIDTH 1152 0
DWIDTH 16 0
BBX 11 18 2 -3
BITMAP
3FC0
3FC0
0000
0000
0000
0000
FFE0
7FE0
38E0
3860
3860
38E0
3FC0
3000
3000
3000
3000
2000
ENDCHAR
STARTCHAR 231
ENCODING 231
SWIDTH 1152 0
DWIDTH 16 0
BBX 14 20 1 -4
BITMAP
1FE0
1FE0
0000
FFF0
7FF0
3FF8
1E18
1E1C
1E1C
FE1C
3E1C
1FF8
1FF8
1DF0
1C00
1C00
1C00
1C00
1800
1800
ENDCHAR
STARTCHAR 232
ENCODING 232
SWIDTH 1152 0
DWIDTH 16 0
BBX 16 19 0 -2
BITMAP
FFF0
FFF8
FFF8
EFFC
8E1C
0E1E
0E0E
0E07
0FFF
0FFF
0FFF
0E00
0E00
0E00
0E00
0E00
1E00
3E00
FE00
ENDCHAR
STARTCHAR 233
ENCODING 233
SWIDTH 1152 0
DWIDTH 16 0
BBX 13 19 3 -4
BITMAP
0040
0040
01C0
01C0
01C0
1FC0
7FC0
F1C0
F1C0
E0C0
F1C0
F1C0
FFC0
7EC0
00C0
00C8
00F0
00E0
00C0
ENDCHAR
STARTCHAR 234
ENCODING 234
SWIDTH 1152 0
DWIDTH 16 0
BBX 15 23 1 -4
BITMAP
8000
C000
E000
FFC0
FFF0
7FF0
7C78
7838
701C
E01C
E00E
E00E
E00E
E00E
E00E
E0CE
E0CE
707C
3C38
3FFC
1FEE
07C6
0002
ENDCHAR
STARTCHAR 235
ENCODING 235
SWIDTH 1152 0
DWIDTH 16 0
BBX 15 23 1 -4
BITMAP
8004
C00C
E00C
FFFC
FFFC
7FF8
7C78
7838
701C
E01C
E00E
E00E
E00E
E00E
E00E
E0CE
E0CE
707C
3C38
3FFC
1FEE
07C6
0002
ENDCHAR
STARTCHAR 236
ENCODING 236
SWIDTH 1152 0
DWIDTH 16 0
BBX 15 19 0 -2
BITMAP
C1C0
7FF0
3FF8
3C38
0C08
0C08
0C18
0C38
0FF0
0FC0
0FC0
0DF0
0CF0
0C78
0C38
0818
080C
0804
0002
ENDCHAR
STARTCHAR 237
ENCODING 237
SWIDTH 1152 0
DWIDTH 16 0
BBX 16 15 0 -4
BITMAP
036C
01F9
03FE
0F07
0606
0FE0
3FF8
07F0
0038
F038
3FF0
7FE0
1F40
2AA0
0080
ENDCHAR
STARTCHAR 238
ENCODING 238
SWIDTH 1152 0
DWIDTH 16 0
BBX 15 18 1 -2
BITMAP
03F0
0FF8
0FF8
1E1E
1C0E
180C
1808
1F00
1F80
07E0
0078
0018
2018
7018
FFF8
FFF0
DFF0
8F80
ENDCHAR
STARTCHAR 239
ENCODING 239
SWIDTH 1152 0
DWIDTH 16 0
BBX 13 14 2 -1
BITMAP
1040
1040
3060
3060
7070
6030
E038
E038
F078
F078
F8F8
7FF0
3FE0
3FE0
ENDCHAR
STARTCHAR 240
ENCODING 240
SWIDTH 1152 0
DWIDTH 16 0
BBX 13 24 3 -4
BITMAP
8000
8000
8000
8000
8000
C000
C1F8
C070
E070
E070
E070
E070
E070
E070
E070
E070
E070
E070
E070
E070
F0F0
7FC0
7FC0
1F80
ENDCHAR
STARTCHAR 241
ENCODING 241
SWIDTH 1152 0
DWIDTH 16 0
BBX 12 24 3 -4
BITMAP
8010
8010
8010
8030
8030
C030
C030
E070
E070
E070
E070
E070
E970
E970
E070
E070
E070
E070
E070
E070
E070
7FC0
3FC0
1F80
ENDCHAR
STARTCHAR 242
ENCODING 242
SWIDTH 1152 0
DWIDTH 16 0
BBX 15 24 1 -4
BITMAP
8002
8002
CC66
CC66
E44E
E00E
E00E
E38E
F39E
F11E
F01E
F01E
F01E
F01E
F01E
F01E
F01E
F01E
783C
7C7C
3C78
1FF0
0FF0
07E0
ENDCHAR
STARTCHAR 243
ENCODING 243
SWIDTH 1152 0
DWIDTH 16 0
BBX 16 14 0 -3
BITMAP
7007
7807
380E
BC1E
1C1C
0E30
2E3A
0630
1F7C
07F0
01C0
0BE8
01C0
0080
ENDCHAR
STARTCHAR 244
ENCODING 244
SWIDTH 1152 0
DWIDTH 16 0
BBX 16 20 0 -3
BITMAP
2800
3828
1038
0010
0140
01C0
7087
7807
180C
BC1E
0C18
0E38
2E3A
0630
1F7C
07F0
01C0
0BE8
01C0
0080
ENDCHAR
STARTCHAR 245
ENCODING 245
SWIDTH 1152 0
DWIDTH 16 0
BBX 16 20 0 -3
BITMAP
0FF8
0FF8
0FF8
0000
0000
0000
7007
7807
180C
BC1E
0C18
0E38
2E3A
0630
1F7C
07F0
01C0
0BE8
01C0
0080
ENDCHAR
STARTCHAR 246
ENCODING 246
SWIDTH 1152 0
DWIDTH 16 0
BBX 16 14 0 0
BITMAP
2800
5400
541F
FE1F
7C0F
1806
1806
1804
0DCC
0DCC
0DE8
0F38
0638
0210
ENDCHAR
STARTCHAR 247
ENCODING 247
SWIDTH 1152 0
DWIDTH 16 0
BBX 15 24 1 -4
BITMAP
8000
8000
8000
C000
C000
C000
E000
E002
E000
E002
E000
E004
E00A
E00C
F00E
738E
7386
77C6
7EFE
7C7C
7C7C
701C
600C
600C
ENDCHAR
STARTCHAR 248
ENCODING 248
SWIDTH 1152 0
DWIDTH 16 0
BBX 15 22 1 -4
BITMAP
0060
0060
8C02
8C02
C0C6
E0CE
E00E
E00E
E00E
E00E
E00E
E00E
E10C
638C
638C
67CC
7EFC
7C7C
3C78
3018
2008
2008
ENDCHAR
STARTCHAR 249
ENCODING 249
SWIDTH 1152 0
DWIDTH 16 0
BBX 15 24 1 -4
BITMAP
8002
8002
8002
8002
C006
C006
E00E
E00E
E10E
E10E
E10E
E38E
E38E
E38E
E38E
E38E
E38E
E7CE
FC7E
FC7E
F83E
F01E
E00E
E00E
ENDCHAR
STARTCHAR 250
ENCODING 250
SWIDTH 1152 0
DWIDTH 16 0
BBX 15 12 1 0
BITMAP
1FFE
3FFC
7FF8
E070
C0E0
81C0
0380
0700
0E02
1C06
3FFC
7FF8
ENDCHAR
STARTCHAR 251
ENCODING 251
SWIDTH 1152 0
DWIDTH 16 0
BBX 11 17 3 -1
BITMAP
FFE0
FFE0
C060
8060
80E0
01C0
01C0
0700
0E00
0E00
3800
7020
7020
F060
FFE0
FFE0
FFE0
ENDCHAR
STARTCHAR 252
ENCODING 252
SWIDTH 1152 0
DWIDTH 16 0
BBX 15 21 1 -4
BITMAP
1FFC
1FFC
180C
FF0C
7E1C
3C38
1870
00E0
01C0
0380
0700
0E00
1C00
1C00
1FFC
1FFC
1FFC
000C
003E
001C
0008
ENDCHAR
STARTCHAR 253
ENCODING 253
SWIDTH 1152 0
DWIDTH 16 0
BBX 12 20 3 -3
BITMAP
FFF0
C930
9270
B6F0
00D0
01E0
01A0
0360
0FC0
0D80
1B00
7E00
6C00
D800
B000
7FE0
EDA0
C920
B6E0
FFE0
ENDCHAR
STARTCHAR 254
ENCODING 254
SWIDTH 1152 0
DWIDTH 16 0
BBX 16 20 0 -2
BITMAP
FFFF
7FFF
3FFF
1FFF
003F
003F
007E
00FC
01F8
03F0
07E0
0FC0
1F80
3F00
7E00
FFF8
FFFC
FFFE
FFFF
FFFF
ENDCHAR
STARTCHAR 255
ENCODING 255
SWIDTH 1152 0
DWIDTH 16 0
BBX 15 20 1 -2
BITMAP
0030
7878
FCFC
EFCC
C70C
0018
0038
0070
00E0
01C0
0380
0700
0E00
1C00
3800
71C0
F3E2
FFFC
7C18
3800
ENDCHAR
ENDFONT
